<svg width="20" height="35" viewBox="0 0 20 35" fill="none" xmlns="http://www.w3.org/2000/svg">
<path d="M18.9331 30.6288C19.347 31.0427 19.5795 31.604 19.5795 32.1894C19.5795 32.7747 19.347 33.336 18.9331 33.7499C18.5193 34.1638 17.9579 34.3963 17.3726 34.3963C16.7873 34.3963 16.2259 34.1638 15.812 33.7499L1.12455 19.0624C0.919159 18.8577 0.756194 18.6145 0.644998 18.3467C0.533802 18.0789 0.476562 17.7918 0.476562 17.5019C0.476562 17.2119 0.533802 16.9248 0.644998 16.657C0.756194 16.3892 0.919159 16.146 1.12455 15.9413L15.812 1.25382C16.2259 0.839938 16.7873 0.607422 17.3726 0.607422C17.9579 0.607422 18.5193 0.839939 18.9331 1.25382C19.347 1.6677 19.5795 2.22905 19.5795 2.81437C19.5795 3.39969 19.347 3.96103 18.9331 4.37491L5.80803 17.5L18.9331 30.6288Z" fill="white"/>
</svg>
